<svg width="532" height="178" viewBox="0 0 532 178" fill="none" xmlns="http://www.w3.org/2000/svg">
<path d="M65.5136 40.2722C69.2555 40.1453 73.3667 40.2387 77.1444 40.2245C78.0342 41.6297 78.8754 42.584 80.3115 43.4745C80.3677 49.0295 80.3065 54.6543 80.3064 60.2149C77.3645 62.0313 75.7935 65.4913 76.4254 68.8976C76.8157 71.1156 78.0848 73.0822 79.945 74.3519C81.7248 75.5504 83.9108 75.9853 86.0138 75.5588C88.5736 75.0536 90.2694 73.674 91.6944 71.5614C93.4621 71.4648 96.0874 71.5333 97.9089 71.5322C101.397 71.5242 104.884 71.5342 108.372 71.562C109.346 72.9342 110.123 73.7653 111.567 74.6476L111.574 78.3916L111.562 86.8244L93.5327 86.8358C87.5166 86.8444 78.2831 87.2048 72.6323 85.6713C72.0384 82.5031 69.5336 80.7717 66.6411 79.9083C65.1362 74.0462 65.5357 66.5277 65.531 60.3936L65.5136 40.2722Z" fill="#20936D"/>
<path d="M72.6777 94.0986C79.045 95.2618 83.1038 95.0963 89.4797 95.0969L103.241 95.1102C105.941 95.1104 108.894 95.0509 111.577 95.1448L111.576 107.447C110.854 107.945 110.451 108.276 109.792 108.851C109.186 109.445 108.848 109.923 108.407 110.634C103.299 110.878 98.1832 110.341 93.2363 109.044C85.1109 106.908 76.9692 101.439 72.6777 94.0986Z" fill="#20936D"/>
<path d="M45.7917 40.256L57.1027 40.2373L57.1024 57.9602C57.101 62.137 57.0371 66.5751 57.1591 70.723C57.2395 73.4523 57.7987 77.3133 58.203 79.9925L56.0924 78.3975C55.1122 77.6163 54.179 76.7779 53.298 75.8865C46.3097 68.8462 43.0093 59.4388 42.4655 49.6678C42.3602 47.7764 42.4259 45.499 42.4328 43.5816C44.0162 42.5568 44.7796 41.8828 45.7917 40.256Z" fill="#20936D"/>
<path d="M38.0986 30.0273C41.1119 29.7546 43.1528 31.5692 44.4287 34.0879L78.5859 34.0889C79.2817 32.544 80.2275 31.3426 81.793 30.5996C83.2951 29.8818 85.0252 29.8098 86.582 30.3994C88.1046 30.9692 89.4375 32.1502 90.0947 33.6475C90.7767 35.2189 90.8024 36.9982 90.166 38.5889C89.4557 40.398 88.1588 41.3441 86.4463 42.1074L86.4717 61.5723C88.6202 62.4183 89.3298 63.3887 90.332 65.3447L109.82 65.3477C110.613 63.6863 111.529 62.5126 113.287 61.7607C114.806 61.1064 116.526 61.0984 118.051 61.7393C119.579 62.3897 120.79 63.6148 121.423 65.1504C122.761 68.4684 121.028 71.9689 117.735 73.2354C117.815 85.0883 117.594 97.1345 117.779 108.962C119.118 109.522 119.763 109.973 120.682 111.082C122.935 114.297 121.874 118.647 118.323 120.365C116.819 121.078 115.092 121.16 113.527 120.593C111.671 119.911 110.647 118.537 109.855 116.805C100.906 116.678 91.7951 116.896 82.8252 116.826C70.0189 116.726 57.9956 113.393 48.7793 104.088C41.476 96.7142 37.3365 86.3067 36.4902 76.0723C36.1045 71.405 36.1904 66.3188 36.2002 61.6182L36.2471 41.918C35.7928 41.6736 35.3708 41.4387 34.9629 41.1328C31.1403 38.2678 31.8935 32.1587 36.3926 30.4258C37.0168 30.1854 37.4482 30.1169 38.0986 30.0273ZM40.2441 67.3096C39.927 79.6451 42.3975 91.5457 51.1475 100.776C56.8916 106.803 64.5342 110.593 72.7139 111.967C74.8961 112.333 77.4177 112.512 79.626 112.579C81.2626 112.629 83.894 113.03 85.4492 112.863L85.3496 112.795C83.9653 111.854 81.3771 110.672 79.6738 109.615C73.5565 105.894 68.6652 100.46 65.6064 93.9863C61.1252 94.2367 58.8056 91.7996 58.6094 87.4307L58.6055 87.3359C57.8156 86.9732 56.5664 86.2087 55.8125 85.7354C50.3029 82.2279 45.7428 77.4167 42.5352 71.7275C42.1348 71.0171 40.5701 67.5887 40.2441 67.3096ZM69.8311 91.2734C69.6012 91.561 69.4028 91.8216 69.1416 92.083C72.4183 99.88 80.0836 106.257 87.7871 109.429C95.4368 112.578 101.809 112.862 109.912 112.789C110.192 111.908 110.609 111.183 111.247 110.506C112.113 109.679 112.645 109.396 113.752 108.885L113.746 92.9766C111.009 92.8539 107.633 92.9478 104.854 92.9512L88.0098 92.9648C84.4394 92.9582 80.5903 93.0478 77.0479 92.6777C74.8298 92.4459 72.0328 91.8049 69.8311 91.2734ZM70.1289 38.1123C67.8693 38.1057 65.5681 38.0255 63.3115 38.0986C63.23 39.7499 63.3003 41.9129 63.3076 43.5967L63.3135 52.8623L63.3047 65.7627C63.307 66.9059 63.3465 68.1072 63.3164 69.2441C63.2033 73.5286 63.966 77.6424 64.8984 81.8076C68.3798 82.1547 70.4311 83.9905 70.8604 87.4932C72.3181 87.8004 73.7325 88.1431 75.2061 88.3789C78.8819 88.9671 82.5311 88.9749 86.2432 88.9795L96.0332 88.9697C101.939 89.0122 107.846 89.0013 113.752 88.9375L113.747 80.8818C113.752 78.3687 113.78 75.8154 113.751 73.3057C111.765 72.4575 110.666 71.4603 109.801 69.4277C107.493 69.3728 105.091 69.3565 102.784 69.3945C98.6458 69.4628 94.4325 69.2737 90.3037 69.3809C89.9965 70.6759 88.8155 72.0609 87.7031 72.7178C84.7928 74.436 80.9609 73.4749 79.2354 70.5742C77.4918 67.6432 78.5384 63.7841 81.4209 62.0977C81.7836 61.8831 82.1583 61.6895 82.543 61.5176C82.485 55.0372 82.4658 48.5559 82.4844 42.0752C80.426 41.1346 79.4467 40.2986 78.5742 38.1523C75.7592 38.0894 72.9446 38.1203 70.1289 38.1123ZM45.0674 38.1025C44.9155 38.1088 44.4299 38.0735 44.3652 38.2246C43.4603 40.3456 42.3688 41.334 40.2461 42.1143C40.2086 45.1474 40.1974 48.1343 40.4287 51.166C41.1523 60.6541 44.7191 70.1221 51.3906 77.0352C52.9733 78.6751 55.5862 80.8883 57.5215 82.1211C58.4015 82.6654 59.2342 83.1911 60.1514 83.6738C60.4225 83.338 60.6759 83.0048 60.9854 82.7041C60.2513 79.7814 59.7402 76.8069 59.458 73.8066C59.2443 71.2794 59.2823 68.5558 59.2852 66.0166L59.292 56.3125C59.2863 50.4853 59.1474 43.9295 59.3418 38.1445C56.7322 38.0823 54.1066 38.1327 51.4951 38.1191C49.3487 38.1079 47.2137 38.0576 45.0674 38.1025Z" fill="#20936D"/>
<path d="M42.7737 76.23C43.6651 77.2045 44.6592 78.7133 45.6264 79.8125C49.0213 83.6695 52.2547 86.0586 56.5788 88.6969C57.2155 92.9477 59.8094 95.7794 64.2095 96.0491C67.0378 101.936 71.576 106.329 76.6542 110.255C75.224 110.398 72.1649 109.684 70.7322 109.375C57.0705 106.423 46.5262 95.6512 43.6544 82.0111C43.2633 80.1532 42.7603 78.1608 42.7737 76.23Z" fill="#20936D"/>
<path d="M22.73 70.7881L32.7927 70.784C32.8109 74.7255 32.8723 78.0948 33.515 82.0563C35.076 91.6776 38.8693 100.578 45.7754 107.582C53.2524 115.165 63.1795 119.248 73.6456 120.501C76.3354 120.823 79.2364 120.78 81.9368 120.791L81.9438 141.212C81.9365 143.814 82.0738 146.583 81.8655 149.171C81.7934 150.067 81.1243 151 80.5271 151.641C79.1007 153.173 77.2888 153.022 75.3717 153.013C74.2782 153.012 73.1327 153.013 72.0157 153.013L59.5086 153.013L44.532 153.017C42.0547 153.026 38.9854 153.209 36.5896 152.903C34.2509 152.605 32.911 149.828 32.9247 147.696C32.972 140.38 32.8822 133.141 32.9111 125.823C32.9224 123.012 31.3094 120.816 28.3562 120.592C26.1552 120.486 23.8045 120.562 21.5935 120.562L8.835 120.553C6.39016 120.558 3.40974 121.124 1.57825 119.289C0.365285 118.074 0.0438968 116.883 0.021603 115.215C0.00786993 112.428 0.013577 109.64 0.0392595 106.852L0.0405087 87.5411L0.0463951 79.0689C0.0465735 76.1871 -0.511309 73.4155 2.23726 71.5932C3.71936 70.6104 5.13689 70.8056 6.83015 70.7897C8.04651 70.7783 9.25502 70.7963 10.4653 70.7993L22.73 70.7881Z" fill="#20936D"/>
<path d="M158.1 139V45.4H169.67V89.34L210.62 45.4H225.18L182.67 90.835L228.495 139H213.545L169.67 93.24V139H158.1ZM238.873 56.385V44.425H250.443V56.385H238.873ZM238.873 139V68.8H250.443V139H238.873ZM319.931 139V103.835C319.931 100.498 319.627 97.2917 319.021 94.215C318.457 91.1383 317.439 88.3867 315.966 85.96C314.536 83.49 312.586 81.54 310.116 80.11C307.689 78.68 304.612 77.965 300.886 77.965C297.982 77.965 295.339 78.4633 292.956 79.46C290.616 80.4133 288.601 81.8867 286.911 83.88C285.221 85.8733 283.899 88.3867 282.946 91.42C282.036 94.41 281.581 97.9417 281.581 102.015L273.976 99.675C273.976 92.8717 275.189 87.0433 277.616 82.19C280.086 77.2933 283.531 73.545 287.951 70.945C292.414 68.3017 297.657 66.98 303.681 66.98C308.231 66.98 312.109 67.695 315.316 69.125C318.522 70.555 321.187 72.4617 323.311 74.845C325.434 77.185 327.102 79.8283 328.316 82.775C329.529 85.6783 330.374 88.6467 330.851 91.68C331.371 94.67 331.631 97.5083 331.631 100.195V139H319.931ZM269.881 139V68.8H280.281V87.585H281.581V139H269.881ZM368.485 140.95C363.241 140.95 358.843 139.997 355.29 138.09C351.78 136.14 349.115 133.583 347.295 130.42C345.518 127.257 344.63 123.79 344.63 120.02C344.63 116.337 345.323 113.152 346.71 110.465C348.14 107.735 350.133 105.482 352.69 103.705C355.246 101.885 358.301 100.455 361.855 99.415C365.191 98.505 368.918 97.725 373.035 97.075C377.195 96.3817 381.398 95.7533 385.645 95.19C389.891 94.6267 393.856 94.085 397.54 93.565L393.38 95.97C393.51 89.73 392.253 85.115 389.61 82.125C387.01 79.135 382.503 77.64 376.09 77.64C371.843 77.64 368.116 78.615 364.91 80.565C361.746 82.4717 359.515 85.5917 358.215 89.925L347.23 86.61C348.92 80.4567 352.191 75.625 357.045 72.115C361.898 68.605 368.29 66.85 376.22 66.85C382.59 66.85 388.05 67.9983 392.6 70.295C397.193 72.5483 400.486 75.9717 402.48 80.565C403.476 82.7317 404.105 85.0933 404.365 87.65C404.625 90.1633 404.755 92.8067 404.755 95.58V139H394.485V122.165L396.89 123.725C394.246 129.402 390.541 133.692 385.775 136.595C381.051 139.498 375.288 140.95 368.485 140.95ZM370.24 131.265C374.4 131.265 377.996 130.528 381.03 129.055C384.106 127.538 386.576 125.567 388.44 123.14C390.303 120.67 391.516 117.983 392.08 115.08C392.73 112.913 393.076 110.508 393.12 107.865C393.206 105.178 393.25 103.12 393.25 101.69L397.28 103.445C393.51 103.965 389.805 104.463 386.165 104.94C382.525 105.417 379.08 105.937 375.83 106.5C372.58 107.02 369.655 107.648 367.055 108.385C365.148 108.992 363.35 109.772 361.66 110.725C360.013 111.678 358.67 112.913 357.63 114.43C356.633 115.903 356.135 117.745 356.135 119.955C356.135 121.862 356.611 123.682 357.565 125.415C358.561 127.148 360.078 128.557 362.115 129.64C364.195 130.723 366.903 131.265 370.24 131.265ZM421.655 139V68.8H431.99V85.765L430.3 83.555C431.123 81.3883 432.185 79.395 433.485 77.575C434.828 75.755 436.323 74.26 437.97 73.09C439.79 71.6167 441.848 70.49 444.145 69.71C446.441 68.93 448.781 68.475 451.165 68.345C453.548 68.1717 455.78 68.3233 457.86 68.8V79.655C455.433 79.005 452.768 78.8317 449.865 79.135C446.961 79.4383 444.275 80.5 441.805 82.32C439.551 83.9233 437.796 85.8733 436.54 88.17C435.326 90.4667 434.481 92.9583 434.005 95.645C433.528 98.2883 433.29 100.997 433.29 103.77V139H421.655ZM487.821 140.95C482.577 140.95 478.179 139.997 474.626 138.09C471.116 136.14 468.451 133.583 466.631 130.42C464.854 127.257 463.966 123.79 463.966 120.02C463.966 116.337 464.659 113.152 466.046 110.465C467.476 107.735 469.469 105.482 472.026 103.705C474.582 101.885 477.637 100.455 481.191 99.415C484.527 98.505 488.254 97.725 492.371 97.075C496.531 96.3817 500.734 95.7533 504.981 95.19C509.227 94.6267 513.192 94.085 516.876 93.565L512.716 95.97C512.846 89.73 511.589 85.115 508.946 82.125C506.346 79.135 501.839 77.64 495.426 77.64C491.179 77.64 487.452 78.615 484.246 80.565C481.082 82.4717 478.851 85.5917 477.551 89.925L466.566 86.61C468.256 80.4567 471.527 75.625 476.381 72.115C481.234 68.605 487.626 66.85 495.556 66.85C501.926 66.85 507.386 67.9983 511.936 70.295C516.529 72.5483 519.822 75.9717 521.816 80.565C522.812 82.7317 523.441 85.0933 523.701 87.65C523.961 90.1633 524.091 92.8067 524.091 95.58V139H513.821V122.165L516.226 123.725C513.582 129.402 509.877 133.692 505.111 136.595C500.387 139.498 494.624 140.95 487.821 140.95ZM489.576 131.265C493.736 131.265 497.332 130.528 500.366 129.055C503.442 127.538 505.912 125.567 507.776 123.14C509.639 120.67 510.852 117.983 511.416 115.08C512.066 112.913 512.412 110.508 512.456 107.865C512.542 105.178 512.586 103.12 512.586 101.69L516.616 103.445C512.846 103.965 509.141 104.463 505.501 104.94C501.861 105.417 498.416 105.937 495.166 106.5C491.916 107.02 488.991 107.648 486.391 108.385C484.484 108.992 482.686 109.772 480.996 110.725C479.349 111.678 478.006 112.913 476.966 114.43C475.969 115.903 475.471 117.745 475.471 119.955C475.471 121.862 475.947 123.682 476.901 125.415C477.897 127.148 479.414 128.557 481.451 129.64C483.531 130.723 486.239 131.265 489.576 131.265Z" fill="#101828"/>
</svg>
